<svg width="160" height="20" viewBox="0 0 160 20" fill="none" xmlns="http://www.w3.org/2000/svg">
<path d="M23.6629 2.44283V4.84146L25.8053 4.86205L27.9477 4.88264L27.9682 6.99221L27.9887 9.10178H25.8258H23.6629L23.6647 11.521C23.6657 12.8516 23.6982 14.0769 23.7368 14.2439C24.0351 15.5334 25.7423 15.7138 27.0181 14.5906C27.1617 14.4643 27.2949 14.3881 27.3143 14.4214C27.3336 14.4548 27.5313 15.2781 27.7537 16.2509L28.1579 18.0198L27.8354 18.3493C27.4134 18.7805 26.6906 19.206 26.0176 19.4197C25.3173 19.642 23.6771 19.6582 22.8908 19.4505C21.1486 18.9904 20.0732 17.7498 19.7294 15.8033C19.6816 15.5327 19.6483 14.0615 19.6483 12.2228V9.10178H18.8763H18.1042V8.53827V7.97484L20.1307 4.00948L22.157 0.0441924H22.91H23.6629V2.44283Z" fill="#007C50"/>
<path fill-rule="evenodd" clip-rule="evenodd" d="M38.8436 5.15584C40.6395 5.52171 42.1038 6.39549 43.169 7.73694C45.7622 11.0029 45.1621 16.0314 41.8886 18.4648C40.0746 19.8133 37.4296 20.3156 34.8943 19.7931C32.5989 19.32 30.6872 17.8449 29.7171 15.7982C29.1486 14.5986 29.0284 14.0053 29.0348 12.4306C29.0399 11.1877 29.0576 11.0184 29.2503 10.3791C29.9065 8.20229 31.1668 6.70059 33.1203 5.76804C34.79 4.9709 36.8529 4.75027 38.8436 5.15584ZM33.7723 11.0183C34.1326 10.0724 34.9113 9.31807 35.8318 9.02328C36.3743 8.84948 37.2104 8.82966 37.7641 8.97752C39.2686 9.37923 40.2616 10.7732 40.2616 12.4836C40.2616 13.4849 39.9463 14.3388 39.3247 15.0208C38.6109 15.804 37.8345 16.1065 36.6693 16.0554C36.0348 16.0275 35.8915 15.9921 35.3731 15.7352C34.4727 15.289 33.8367 14.4345 33.6177 13.377C33.4857 12.7394 33.5624 11.5692 33.7723 11.0183Z" fill="#007C50"/>
<path d="M56.1083 5.1488C57.1936 5.42718 57.9734 5.95446 58.5209 6.78032C58.7116 7.068 58.8677 7.3422 58.8677 7.38966C58.8677 7.56175 58.9902 7.46986 59.1397 7.18575C59.4101 6.67148 60.2527 5.89918 60.8807 5.58999C61.8454 5.11489 62.5761 4.97276 63.8048 5.02099C64.5454 5.05009 64.9922 5.10738 65.3344 5.21716C66.599 5.62273 67.4249 6.44705 67.939 7.81676C68.3336 8.86798 68.3631 9.34556 68.3634 14.695L68.3637 19.6302H66.202H64.0403L64.0388 15.5853C64.0379 13.3063 64.0036 11.3065 63.96 11.0047C63.7466 9.52392 62.979 8.80241 61.7057 8.88579C60.5108 8.96398 59.8535 9.65553 59.5955 11.1057C59.5165 11.5502 59.49 12.6712 59.488 15.6627L59.4853 19.6302H57.285H55.0847L55.0834 15.4305C55.0819 10.8453 55.059 10.5503 54.6443 9.77885C54.3358 9.2052 53.8764 8.93533 53.1257 8.88703C51.8711 8.80628 51.0733 9.44194 50.7117 10.8102C50.5976 11.2421 50.5761 11.8596 50.5501 15.4692L50.52 19.6302H48.3245H46.1291V12.4693V5.30843H48.3294H50.5297V6.32365V7.33888L50.8441 6.8668C51.4053 6.02413 52.2586 5.43539 53.3246 5.1553C54.1001 4.95154 55.328 4.94876 56.1083 5.1488Z" fill="#007C50"/>
<path fill-rule="evenodd" clip-rule="evenodd" d="M79.4424 5.1512C82.2156 5.70425 84.3179 7.60077 85.0797 10.2365C85.5441 11.8437 85.514 13.4162 84.9884 15.0028C84.2286 17.2963 82.3727 19.0328 79.999 19.6713C77.0315 20.4695 73.8411 19.7852 71.8865 17.9312C70.2832 16.4105 69.5057 14.3911 69.622 12.05C69.7128 10.2231 70.3477 8.66554 71.528 7.37441C73.345 5.38693 76.3674 4.53791 79.4424 5.1512ZM74.1764 12.2758C74.2637 10.6305 75.0749 9.47546 76.4701 9.00973C76.7957 8.90104 77.0677 8.87433 77.6368 8.89515C78.2713 8.91846 78.4528 8.95709 78.8892 9.16185C80.1253 9.74185 80.8707 10.9799 80.8707 12.4528C80.8707 14.1763 80.0024 15.4636 78.524 15.9321C78.158 16.0481 77.8876 16.0753 77.3132 16.0537C76.6587 16.0292 76.5124 15.9958 76.04 15.7626C74.7579 15.1296 74.0911 13.8822 74.1764 12.2758Z" fill="#007C50"/>
<path d="M4.06152 0.210016C4.53277 0.413308 4.92805 0.845517 5.10848 1.35483C5.26296 1.79114 5.3265 1.83682 5.39544 1.56122C5.46879 1.26828 6.03909 0.596318 6.41978 0.354163C7.29604 -0.202995 8.70508 -0.0789754 9.39852 0.616368C10.0287 1.24823 10.1664 2.06721 10.1354 4.99877L10.1137 7.05027L9.7508 7.07373L9.38802 7.09711L9.36479 4.51902L9.34162 1.94087L9.10484 1.51508C8.91415 1.17221 8.78638 1.0468 8.44861 0.871065C8.08058 0.679539 7.96115 0.656005 7.4743 0.678765C7.00591 0.700674 6.86795 0.741007 6.58893 0.937719C6.12154 1.26704 5.78108 1.74934 5.59934 2.33932C5.45829 2.79731 5.44285 3.05665 5.44285 4.96819V7.08898H5.103H4.76307L4.72848 4.74717C4.69104 2.21399 4.64232 1.8561 4.2597 1.30242C4.14807 1.14086 3.94904 0.944841 3.8174 0.866884C3.49423 0.675436 2.7591 0.616678 2.29866 0.745419C1.79243 0.886935 1.20561 1.47947 0.958867 2.0981C0.783461 2.53782 0.772653 2.66872 0.734668 4.80523L0.694832 7.05027H0.347416H0V3.60529V0.160315H0.347416H0.694832L0.733433 0.888328L0.772035 1.61634L0.904284 1.33687C1.45212 0.179127 2.84093 -0.316485 4.06152 0.210016Z" fill="#007C50"/>
<path d="M13.332 2.43911L14.8231 4.83395L15.0427 4.43255C15.1635 4.21176 15.7193 3.14274 16.278 2.05699L17.2936 0.0829L17.6603 0.0592883C17.8796 0.0451988 18.027 0.0683462 18.027 0.116886C18.027 0.181063 13.4363 8.99634 13.3557 9.08676C13.3442 9.09976 13.1595 9.09976 12.9453 9.08676L12.556 9.06307L13.5057 7.32301L14.4555 5.58302L14.2591 5.2715C12.6252 2.68065 11.0787 0.174173 11.0787 0.116886C11.0787 0.0769393 11.2502 0.0441924 11.4599 0.0441924H11.841L13.332 2.43911Z" fill="#007C50"/>
<path d="M96.7167 5.23628L97.0062 5.31439V7.40994C97.0062 9.33526 96.9957 9.50139 96.8774 9.4558C96.3305 9.24538 94.9001 9.23183 94.0725 9.42916C93.1158 9.65731 92.282 10.3239 91.8578 11.1997C91.377 12.1925 91.3513 12.4286 91.3142 16.2046L91.2806 19.6302H89.009H86.7374L86.757 12.4887L86.7767 5.34714L89.0349 5.32662L91.2931 5.30611V6.44775V7.58939L91.4965 7.28112C92.2221 6.18105 93.5279 5.37206 94.9348 5.15097C95.4014 5.07758 96.2854 5.11992 96.7167 5.23628Z" fill="#007C50"/>
<path d="M108.374 5.23628L108.664 5.31439V7.40994C108.664 9.22603 108.649 9.49953 108.55 9.46152C108.17 9.31544 107.064 9.246 106.388 9.32589C105.153 9.47205 104.357 9.89845 103.783 10.7218C103.051 11.7724 102.951 12.4662 102.951 16.4664V19.6302H100.673H98.3959V12.4693V5.30843H100.673H102.951L102.955 6.4116C102.959 7.47366 102.964 7.50756 103.09 7.32123C103.831 6.2241 105.197 5.36231 106.512 5.16126C107.051 5.07882 107.921 5.11388 108.374 5.23628Z" fill="#007C50"/>
<path fill-rule="evenodd" clip-rule="evenodd" d="M117.581 5.00217C118.691 5.10761 119.503 5.31981 120.374 5.7322C121.52 6.27473 122.338 6.92385 123.065 7.86855C124.784 10.1007 125.057 13.4308 123.736 16.0304C123.018 17.4435 121.65 18.7127 120.187 19.3235C117.972 20.2483 115.087 20.2175 113.017 19.247C110.959 18.2821 109.59 16.6322 109 14.404C108.822 13.7307 108.795 13.4802 108.795 12.4693C108.795 11.4602 108.822 11.2075 108.999 10.5395C109.558 8.42958 110.916 6.74131 112.8 5.81225C113.856 5.29171 115.026 5.01634 116.539 4.93219C116.645 4.92631 117.114 4.95782 117.581 5.00217ZM113.92 10.3314C114.343 9.67039 115.095 9.12585 115.824 8.9536C116.334 8.83307 117.19 8.8604 117.679 9.01275C119.274 9.51076 120.268 11.2101 120.017 13.0147C119.923 13.692 119.769 14.1105 119.413 14.6576C119.084 15.1615 118.731 15.4614 118.089 15.7799C117.657 15.9942 117.496 16.03 116.842 16.0563C116.026 16.0891 115.554 15.9833 114.948 15.6321C113.302 14.6779 112.799 12.0829 113.92 10.3314Z" fill="#007C50"/>
<path d="M128.461 5.37741C128.485 5.41542 129.079 7.30373 129.781 9.5737C130.484 11.8437 131.067 13.7096 131.078 13.7202C131.089 13.7307 131.654 11.8512 132.335 9.54327L133.573 5.34714L135.666 5.32654C137.609 5.30742 137.761 5.3157 137.8 5.44267C137.822 5.51784 138.364 7.35606 139.003 9.52756C139.642 11.6991 140.191 13.5355 140.222 13.6085C140.271 13.7232 141.047 11.3041 142.68 5.9471L142.875 5.30843H145.186C147.02 5.30843 147.497 5.32902 147.497 5.40814C147.497 5.46303 146.643 7.80577 145.599 10.6143C144.554 13.4229 143.377 16.5917 142.982 17.6562L142.265 19.5915L140.417 19.6122L138.57 19.633L137.152 15.1802C136.373 12.7312 135.713 10.7275 135.687 10.7275C135.66 10.7275 134.996 12.7219 134.212 15.1595L132.786 19.5915H130.936H129.086L126.443 12.508C124.99 8.61212 123.8 5.39838 123.798 5.36649C123.795 5.2835 128.41 5.29434 128.461 5.37741Z" fill="#007C50"/>
<path d="M155.416 5.11876C157.731 5.53495 159.17 6.71592 159.654 8.59548C159.719 8.84925 159.773 9.22378 159.773 9.42769V9.79851H157.544H155.316L155.27 9.40354C155.206 8.8621 154.902 8.36865 154.5 8.15328C154.034 7.90323 152.936 7.90664 152.455 8.15971C151.646 8.5851 151.602 9.61744 152.372 10.0894C152.686 10.2817 153.514 10.5768 155.604 11.2411C156.474 11.5179 157.471 11.8814 157.819 12.049C158.57 12.4104 159.313 13.0647 159.586 13.604C160.329 15.0739 160.045 17.1766 158.956 18.2701C158.184 19.0451 157.261 19.5051 155.899 19.7941C154.839 20.0188 152.604 20.0393 151.56 19.8339C148.779 19.2867 147.279 17.7891 146.996 15.2756L146.946 14.8305H149.181H151.417L151.472 15.1982C151.586 15.9645 151.908 16.4311 152.516 16.7118C152.794 16.8405 153.024 16.8733 153.674 16.8771C154.972 16.8849 155.451 16.5752 155.507 15.692C155.563 14.8141 155.174 14.5627 152.438 13.7083C149.82 12.8904 149.11 12.5683 148.357 11.8552C147.481 11.0252 147.141 9.69749 147.459 8.3462C147.912 6.42127 149.596 5.2602 152.311 5.00179C153.19 4.91818 154.595 4.97105 155.416 5.11876Z" fill="#007C50"/>
</svg>
